<?xml version="1.0" standalone="no"?>
<!DOCTYPE svg PUBLIC "-//W3C//DTD SVG 20010904//EN"
 "http://www.w3.org/TR/2001/REC-SVG-20010904/DTD/svg10.dtd">
<svg version="1.0" xmlns="http://www.w3.org/2000/svg"
 width="576.000000pt" height="460.000000pt" viewBox="0 0 576.000000 460.000000"
 preserveAspectRatio="xMidYMid meet">

<g transform="translate(0.000000,460.000000) scale(0.100000,-0.100000)"
fill="#000000" stroke="none">
<path d="M2330 4275 c0 -8 5 -15 10 -15 6 0 10 7 10 15 0 8 -4 15 -10 15 -5 0
-10 -7 -10 -15z"/>
<path d="M3410 4275 c0 -8 5 -15 10 -15 6 0 10 7 10 15 0 8 -4 15 -10 15 -5 0
-10 -7 -10 -15z"/>
<path d="M2633 4203 c37 -2 96 -2 130 0 34 2 4 3 -68 3 -71 0 -99 -1 -62 -3z"/>
<path d="M3003 4203 c37 -2 96 -2 130 0 34 2 4 3 -68 3 -71 0 -99 -1 -62 -3z"/>
<path d="M2413 4193 c9 -2 25 -2 35 0 9 3 1 5 -18 5 -19 0 -27 -2 -17 -5z"/>
<path d="M2478 4193 c7 -3 16 -2 19 1 4 3 -2 6 -13 5 -11 0 -14 -3 -6 -6z"/>
<path d="M3283 4193 c15 -2 39 -2 55 0 15 2 2 4 -28 4 -30 0 -43 -2 -27 -4z"/>
<path d="M2283 4183 c15 -2 37 -2 50 0 12 2 0 4 -28 4 -27 0 -38 -2 -22 -4z"/>
<path d="M3423 4183 c15 -2 37 -2 50 0 12 2 0 4 -28 4 -27 0 -38 -2 -22 -4z"/>
<path d="M2178 4173 c12 -2 32 -2 45 0 12 2 2 4 -23 4 -25 0 -35 -2 -22 -4z"/>
<path d="M3538 4173 c12 -2 30 -2 40 0 9 3 -1 5 -23 4 -22 0 -30 -2 -17 -4z"/>
<path d="M2088 4163 c12 -2 30 -2 40 0 9 3 -1 5 -23 4 -22 0 -30 -2 -17 -4z"/>
<path d="M3638 4163 c12 -2 30 -2 40 0 9 3 -1 5 -23 4 -22 0 -30 -2 -17 -4z"/>
<path d="M2013 4153 c9 -2 23 -2 30 0 6 3 -1 5 -18 5 -16 0 -22 -2 -12 -5z"/>
<path d="M3723 4153 c9 -2 23 -2 30 0 6 3 -1 5 -18 5 -16 0 -22 -2 -12 -5z"/>
<path d="M1933 4143 c9 -2 23 -2 30 0 6 3 -1 5 -18 5 -16 0 -22 -2 -12 -5z"/>
<path d="M3803 4143 c9 -2 23 -2 30 0 6 3 -1 5 -18 5 -16 0 -22 -2 -12 -5z"/>
<path d="M1863 4133 c9 -2 23 -2 30 0 6 3 -1 5 -18 5 -16 0 -22 -2 -12 -5z"/>
<path d="M3873 4133 c9 -2 23 -2 30 0 6 3 -1 5 -18 5 -16 0 -22 -2 -12 -5z"/>
<path d="M1798 4123 c6 -2 18 -2 25 0 6 3 1 5 -13 5 -14 0 -19 -2 -12 -5z"/>
<path d="M3938 4123 c6 -2 18 -2 25 0 6 3 1 5 -13 5 -14 0 -19 -2 -12 -5z"/>
<path d="M1738 4113 c6 -2 18 -2 25 0 6 3 1 5 -13 5 -14 0 -19 -2 -12 -5z"/>
<path d="M3998 4113 c6 -2 18 -2 25 0 6 3 1 5 -13 5 -14 0 -19 -2 -12 -5z"/>
<path d="M1678 4103 c6 -2 18 -2 25 0 6 3 1 5 -13 5 -14 0 -19 -2 -12 -5z"/>
<path d="M4058 4103 c6 -2 18 -2 25 0 6 3 1 5 -13 5 -14 0 -19 -2 -12 -5z"/>
<path d="M1465 4069 c-74 -18 -133 -26 -152 -23 -26 5 -33 3 -33 -9 0 -10 -13
-18 -37 -22 -21 -3 -49 -13 -63 -21 -17 -10 -18 -13 -5 -9 60 21 82 24 117 19
30 -5 38 -3 38 8 0 11 35 23 137 45 75 16 133 32 127 35 -5 2 -63 -8 -129 -23z"/>
<path d="M1618 4093 c6 -2 18 -2 25 0 6 3 1 5 -13 5 -14 0 -19 -2 -12 -5z"/>
<path d="M4118 4093 c6 -2 18 -2 25 0 6 3 1 5 -13 5 -14 0 -19 -2 -12 -5z"/>
<path d="M4166 4091 c-3 -3 56 -19 130 -35 100 -21 134 -32 134 -44 0 -11 9
-13 41 -9 22 3 54 1 71 -4 18 -5 34 -7 36 -4 2 2 -16 9 -39 15 -24 6 -49 18
-56 27 -8 11 -21 14 -41 10 -16 -3 -81 6 -151 22 -67 16 -123 26 -125 22z"/>
<path d="M1120 3970 c-8 -5 -10 -10 -5 -10 6 0 17 5 25 10 8 5 11 10 5 10 -5
0 -17 -5 -25 -10z"/>
<path d="M4610 3976 c0 -2 7 -7 16 -10 8 -3 12 -2 9 4 -6 10 -25 14 -25 6z"/>
<path d="M846 3933 c-11 -11 -6 -23 9 -23 8 0 15 4 15 9 0 13 -16 22 -24 14z"/>
<path d="M4896 3933 c-11 -11 -6 -23 9 -23 8 0 15 4 15 9 0 13 -16 22 -24 14z"/>
<path d="M794 3768 l-19 -23 23 19 c21 18 27 26 19 26 -2 0 -12 -10 -23 -22z"/>
<path d="M684 3658 l-19 -23 23 19 c12 11 22 21 22 23 0 8 -8 2 -26 -19z"/>
<path d="M639 3603 c-13 -16 -12 -17 4 -4 9 7 17 15 17 17 0 8 -8 3 -21 -13z"/>
<path d="M507 3584 c-8 -8 1 -24 14 -24 5 0 9 7 9 15 0 15 -12 20 -23 9z"/>
<path d="M5230 3575 c0 -9 5 -15 11 -13 6 2 11 8 11 13 0 5 -5 11 -11 13 -6 2
-11 -4 -11 -13z"/>
<path d="M570 3500 c-6 -11 -8 -20 -6 -20 3 0 10 9 16 20 6 11 8 20 6 20 -3 0
-10 -9 -16 -20z"/>
<path d="M1660 3340 c0 -6 -11 -8 -25 -4 -18 4 -25 2 -25 -8 0 -22 11 -28 31
-17 13 6 19 6 19 -1 0 -5 11 -10 25 -10 14 0 25 5 25 10 0 6 33 10 80 10 47 0
80 -4 80 -10 0 -5 9 -10 20 -10 11 0 20 5 20 10 0 7 6 7 19 1 20 -11 31 -5 31
17 0 9 -7 13 -20 9 -11 -3 -23 -1 -26 4 -7 12 -54 11 -54 -1 0 -6 -32 -10 -75
-10 -43 0 -75 4 -75 10 0 6 -11 10 -25 10 -14 0 -25 -5 -25 -10z"/>
<path d="M4360 3339 c0 -8 -28 -10 -90 -7 -68 3 -90 1 -90 -8 0 -17 17 -27 25
-14 3 5 23 10 43 10 29 0 34 -3 22 -11 -12 -9 -11 -10 5 -4 43 14 85 18 85 6
0 -6 11 -11 25 -11 14 0 25 5 25 11 0 12 42 8 85 -6 16 -6 17 -5 5 4 -12 8 -7
11 22 11 20 0 40 -5 43 -10 8 -13 25 -3 25 14 0 9 -22 11 -90 8 -62 -3 -90 -1
-90 7 0 6 -11 11 -25 11 -14 0 -25 -5 -25 -11z"/>
<path d="M1564 3275 c3 -9 0 -25 -7 -35 -9 -16 -9 -24 1 -40 19 -30 17 -386
-2 -406 -12 -11 -53 -14 -205 -14 -121 0 -191 4 -191 10 0 6 -11 10 -25 10
-14 0 -25 -5 -25 -10 0 -6 -11 -8 -25 -4 -19 5 -25 2 -25 -11 0 -13 6 -16 25
-11 14 4 25 2 25 -4 0 -5 11 -10 25 -10 14 0 25 5 25 10 0 6 73 10 200 10 127
0 200 -4 200 -10 0 -5 9 -10 20 -10 15 0 20 7 20 25 0 14 -4 25 -10 25 -6 0
-10 73 -10 200 0 116 4 200 9 200 5 0 9 20 8 45 -2 37 -5 45 -21 45 -12 0 -16
-5 -12 -15z"/>
<path d="M1973 3245 c-1 -25 3 -45 8 -45 5 0 9 -84 9 -200 0 -127 -4 -200 -10
-200 -5 0 -10 -11 -10 -25 0 -18 5 -25 20 -25 11 0 20 5 20 10 0 6 73 10 200
10 127 0 200 -4 200 -10 0 -5 11 -10 25 -10 14 0 25 5 25 10 0 6 11 8 25 4 19
-5 25 -2 25 11 0 13 -6 16 -25 11 -14 -4 -25 -2 -25 4 0 5 -11 10 -25 10 -14
0 -25 -4 -25 -10 0 -6 -70 -10 -191 -10 -152 0 -193 3 -205 14 -11 12 -14 53
-14 205 0 121 4 191 10 191 6 0 10 14 10 30 0 17 -5 30 -11 30 -6 0 -8 9 -4
20 5 15 2 20 -12 20 -14 0 -18 -9 -20 -45z"/>
<path d="M461 3249 c-6 -18 -11 -40 -11 -51 0 -10 -7 -21 -15 -24 -8 -4 -15
-17 -15 -30 0 -19 5 -24 26 -24 25 0 26 1 19 48 -3 27 -2 60 5 76 6 16 9 31 6
33 -2 2 -9 -10 -15 -28z"/>
<path d="M5301 3215 c0 -11 -4 -37 -7 -57 -6 -36 -5 -38 20 -38 21 0 26 5 26
24 0 13 -6 26 -14 29 -8 3 -16 18 -19 34 -2 17 -5 20 -6 8z"/>
<path d="M4630 3216 c0 -2 8 -10 18 -17 15 -13 16 -12 3 4 -13 16 -21 21 -21
13z"/>
<path d="M4038 3100 c3 -64 1 -90 -7 -90 -6 0 -11 -13 -11 -30 0 -16 5 -30 10
-30 13 0 13 -133 0 -146 -8 -8 -6 -15 5 -24 8 -7 15 -9 16 -4 6 69 -1 409 -9
412 -6 2 -8 -31 -4 -88z"/>
<path d="M4719 3186 c-3 -3 -3 -46 -2 -95 1 -54 -2 -91 -7 -91 -6 0 -10 -9
-10 -20 0 -11 5 -20 10 -20 7 0 9 -33 8 -87 -2 -54 1 -88 7 -88 6 0 9 32 6 83
-2 55 1 82 8 82 6 0 11 14 11 30 0 17 -5 30 -11 30 -8 0 -10 26 -7 90 5 80 2
100 -13 86z"/>
<path d="M4686 3137 c3 -10 9 -15 12 -12 3 3 0 11 -7 18 -10 9 -11 8 -5 -6z"/>
<path d="M5352 2900 c0 -14 2 -19 5 -12 2 6 2 18 0 25 -3 6 -5 1 -5 -13z"/>
<path d="M1022 2725 c3 -14 1 -25 -3 -25 -10 0 -12 -43 -3 -52 3 -3 14 -4 25
-1 21 6 26 39 7 46 -10 3 -10 9 -1 25 10 17 9 21 -3 26 -25 9 -27 8 -22 -19z"/>
<path d="M2529 2748 c-1 -2 -3 -23 -5 -47 -4 -46 7 -64 33 -54 18 7 17 42 -2
49 -12 5 -13 10 -4 20 11 14 5 34 -12 34 -5 0 -9 -1 -10 -2z"/>
<path d="M4186 2653 c-3 -3 -6 -11 -6 -18 0 -8 27 -10 90 -7 62 3 90 1 90 -7
0 -6 11 -11 25 -11 14 0 25 5 25 11 0 8 28 10 90 7 78 -4 90 -2 87 11 -2 9
-10 14 -18 12 -26 -8 -159 -7 -159 1 0 4 -11 8 -25 8 -14 0 -25 -4 -25 -8 0
-11 -131 -12 -151 -1 -9 4 -19 5 -23 2z"/>
<path d="M5412 2520 c0 -14 2 -19 5 -12 2 6 2 18 0 25 -3 6 -5 1 -5 -13z"/>
<path d="M3810 2519 c0 -7 -29 -10 -87 -8 -58 2 -88 0 -90 -8 -6 -16 16 -26
31 -14 13 11 141 10 152 -2 11 -11 42 -8 46 4 2 7 17 7 46 1 24 -6 39 -6 36
-1 -3 5 11 9 30 9 19 0 38 -5 41 -10 8 -13 25 -3 25 14 0 9 -22 11 -90 8 -62
-3 -90 -1 -90 7 0 6 -11 11 -25 11 -14 0 -25 -5 -25 -11z"/>
<path d="M1017 2493 c-11 -10 -8 -53 4 -53 5 0 7 -5 4 -10 -11 -17 3 -40 19
-34 12 5 13 10 3 26 -9 16 -9 22 1 25 17 7 15 40 -4 47 -19 7 -19 7 -27 -1z"/>
<path d="M2532 2491 c-13 -8 -9 -94 5 -98 17 -6 26 16 14 31 -9 10 -8 15 4 20
8 3 15 14 15 25 0 21 -20 33 -38 22z"/>
<path d="M5422 2455 c0 -16 2 -22 5 -12 2 9 2 23 0 30 -3 6 -5 -1 -5 -18z"/>
<path d="M1067 2383 c-4 -3 -7 -13 -7 -21 0 -10 7 -12 25 -8 14 4 25 2 25 -4
0 -5 11 -10 25 -10 14 0 25 5 25 10 0 6 70 10 191 10 152 0 193 -3 205 -14 18
-19 21 -376 2 -405 -7 -11 -8 -26 -3 -37 5 -11 9 -26 9 -34 1 -8 12 -17 26
-18 20 -3 22 -2 12 11 -7 8 -10 27 -6 46 4 20 3 31 -5 31 -8 0 -11 59 -11 200
0 127 4 200 10 200 6 0 10 11 10 25 0 18 -5 25 -20 25 -11 0 -20 -4 -20 -10 0
-6 -73 -10 -200 -10 -127 0 -200 4 -200 10 0 15 -48 12 -53 -2 -3 -10 -7 -10
-19 -1 -8 7 -18 10 -21 6z"/>
<path d="M1970 2365 c0 -14 5 -25 10 -25 6 0 10 -73 10 -200 0 -116 -4 -200
-9 -200 -5 0 -9 -20 -8 -45 2 -36 6 -45 20 -45 14 0 17 5 12 19 -3 11 -1 22 5
26 13 8 13 55 0 55 -6 0 -10 70 -10 191 0 152 3 193 14 205 12 11 53 14 205
14 121 0 191 -4 191 -10 0 -5 11 -10 25 -10 14 0 25 5 25 10 0 6 11 8 25 4 19
-5 25 -2 25 11 0 13 -6 16 -25 11 -14 -4 -25 -2 -25 4 0 5 -11 10 -25 10 -14
0 -25 -4 -25 -10 0 -6 -73 -10 -200 -10 -127 0 -200 4 -200 10 0 6 -9 10 -20
10 -15 0 -20 -7 -20 -25z"/>
<path d="M3489 2364 c-1 -5 -1 -46 1 -91 1 -55 -2 -83 -9 -83 -6 0 -11 -13
-11 -30 0 -16 5 -30 11 -30 7 0 10 -27 8 -82 -3 -51 0 -83 6 -83 6 0 9 35 8
88 -1 49 2 87 8 87 5 0 9 9 9 20 0 11 -5 20 -11 20 -7 0 -10 29 -8 89 2 49 1
93 -3 97 -5 4 -9 3 -9 -2z"/>
<path d="M4168 2365 c-3 -4 -4 -25 -1 -48 3 -32 2 -38 -6 -27 -13 19 -13 16 3
-45 9 -35 10 -55 3 -66 -6 -9 -7 -25 -2 -35 11 -26 6 -78 -9 -103 -7 -10 -5
-12 3 -6 10 6 12 -3 9 -36 -2 -34 0 -44 12 -44 12 0 14 15 11 81 -2 55 2 89
11 103 11 17 11 25 0 42 -9 14 -13 48 -11 102 3 73 -5 100 -23 82z"/>
<path d="M5442 2330 c0 -14 2 -19 5 -12 2 6 2 18 0 25 -3 6 -5 1 -5 -13z"/>
<path d="M282 2140 c0 -14 2 -19 5 -12 2 6 2 18 0 25 -3 6 -5 1 -5 -13z"/>
<path d="M5502 1950 c0 -14 2 -19 5 -12 2 6 2 18 0 25 -3 6 -5 1 -5 -13z"/>
<path d="M1616 1833 c-3 -3 -6 -13 -6 -21 0 -10 7 -12 25 -8 14 4 25 2 25 -4
0 -5 11 -10 25 -10 20 0 25 5 25 25 0 20 -5 25 -25 25 -14 0 -25 -5 -25 -10 0
-7 -6 -7 -19 -1 -10 6 -21 7 -25 4z"/>
<path d="M1866 1824 c-3 -9 -6 -20 -6 -25 0 -12 47 -12 54 0 3 5 15 7 26 4 13
-4 20 0 20 9 0 22 -11 28 -31 17 -13 -6 -19 -6 -19 1 0 16 -37 12 -44 -6z"/>
<path d="M3635 1829 c-12 -19 5 -23 90 -20 56 2 85 -1 85 -8 0 -6 11 -11 25
-11 14 0 25 5 25 11 0 8 28 10 90 7 68 -3 90 -1 90 8 0 17 -17 27 -25 14 -3
-5 -23 -10 -43 -10 -29 0 -34 3 -22 11 13 9 13 10 -2 6 -45 -15 -88 -19 -88
-8 0 12 -33 15 -44 4 -11 -11 -137 -13 -157 -3 -12 7 -20 7 -24 -1z"/>
<path d="M5532 1760 c0 -14 2 -19 5 -12 2 6 2 18 0 25 -3 6 -5 1 -5 -13z"/>
<path d="M212 1695 c0 -16 2 -22 5 -12 2 9 2 23 0 30 -3 6 -5 -1 -5 -18z"/>
<path d="M192 1570 c0 -14 2 -19 5 -12 2 6 2 18 0 25 -3 6 -5 1 -5 -13z"/>
<path d="M5586 1361 c-5 -24 -4 -46 1 -50 5 -3 14 -17 21 -31 l11 -25 -5 26
c-3 15 -1 30 5 33 16 10 13 46 -3 46 -8 0 -16 10 -18 23 -3 15 -6 9 -12 -22z"/>
<path d="M148 1363 c-20 -5 -24 -38 -7 -49 6 -3 8 -18 5 -33 l-5 -26 12 28 c6
15 14 27 19 27 10 0 11 47 1 53 -5 2 -16 2 -25 0z"/>
<path d="M1984 1215 c-3 -8 -1 -27 4 -42 7 -18 11 -21 11 -10 1 9 7 17 15 17
13 0 26 20 26 41 0 15 -50 10 -56 -6z"/>
<path d="M3720 1221 c0 -21 13 -41 26 -41 8 0 14 -8 15 -17 0 -11 4 -8 11 10
5 15 7 34 4 42 -6 16 -56 21 -56 6z"/>
<path d="M152 1090 c0 -14 2 -19 5 -12 2 6 2 18 0 25 -3 6 -5 1 -5 -13z"/>
<path d="M1966 1093 c-6 -14 -5 -15 5 -6 7 7 10 15 7 18 -3 3 -9 -2 -12 -12z"/>
<path d="M1937 1052 c-14 -3 -17 -12 -16 -40 1 -20 -1 -48 -4 -62 -4 -14 1 -8
10 13 8 20 22 37 29 37 15 0 19 28 6 45 -4 6 -15 9 -25 7z"/>
<path d="M3796 1043 c-10 -25 -7 -43 9 -43 8 0 19 -17 26 -40 7 -22 16 -40 21
-40 5 0 3 10 -3 22 -7 12 -11 41 -11 64 2 34 -2 43 -17 47 -12 3 -22 -1 -25
-10z"/>
<path d="M161 1034 c0 -11 3 -14 6 -6 3 7 2 16 -1 19 -3 4 -6 -2 -5 -13z"/>
<path d="M171 994 c0 -11 3 -14 6 -6 3 7 2 16 -1 19 -3 4 -6 -2 -5 -13z"/>
<path d="M5555 919 c-4 -6 -5 -12 -2 -15 2 -3 7 2 10 11 7 17 1 20 -8 4z"/>
<path d="M55 841 c-6 -11 9 -23 19 -14 9 9 7 23 -3 23 -6 0 -12 -4 -16 -9z"/>
<path d="M230 841 c0 -6 4 -13 10 -16 6 -3 7 1 4 9 -7 18 -14 21 -14 7z"/>
<path d="M5682 841 c4 -13 18 -16 19 -4 0 4 -5 9 -11 12 -7 2 -11 -2 -8 -8z"/>
<path d="M3970 736 c0 -2 8 -10 18 -17 15 -13 16 -12 3 4 -13 16 -21 21 -21
13z"/>
<path d="M380 635 c13 -14 26 -25 28 -25 3 0 -5 11 -18 25 -13 14 -26 25 -28
25 -3 0 5 -11 18 -25z"/>
<path d="M4070 635 c13 -14 26 -25 28 -25 3 0 -5 11 -18 25 -13 14 -26 25 -28
25 -3 0 5 -11 18 -25z"/>
<path d="M5374 638 l-19 -23 23 19 c12 11 22 21 22 23 0 8 -8 2 -26 -19z"/>
<path d="M1800 640 c0 -5 7 -10 15 -10 8 0 15 5 15 10 0 6 -7 10 -15 10 -8 0
-15 -4 -15 -10z"/>
<path d="M3930 640 c0 -5 7 -10 15 -10 8 0 15 5 15 10 0 6 -7 10 -15 10 -8 0
-15 -4 -15 -10z"/>
<path d="M484 551 c7 -11 46 -35 46 -28 0 3 -12 12 -26 22 -15 9 -23 12 -20 6z"/>
<path d="M4287 489 c7 -7 15 -10 18 -7 3 3 -2 9 -12 12 -14 6 -15 5 -6 -5z"/>
<path d="M1395 460 c-3 -6 1 -7 9 -4 18 7 21 14 7 14 -6 0 -13 -4 -16 -10z"/>
<path d="M4350 460 c8 -5 20 -10 25 -10 6 0 3 5 -5 10 -8 5 -19 10 -25 10 -5
0 -3 -5 5 -10z"/>
<path d="M650 456 c0 -2 7 -7 16 -10 8 -3 12 -2 9 4 -6 10 -25 14 -25 6z"/>
<path d="M768 413 c7 -3 16 -2 19 1 4 3 -2 6 -13 5 -11 0 -14 -3 -6 -6z"/>
<path d="M1258 413 c7 -3 16 -2 19 1 4 3 -2 6 -13 5 -11 0 -14 -3 -6 -6z"/>
<path d="M4488 413 c7 -3 16 -2 19 1 4 3 -2 6 -13 5 -11 0 -14 -3 -6 -6z"/>
<path d="M808 403 c7 -3 16 -2 19 1 4 3 -2 6 -13 5 -11 0 -14 -3 -6 -6z"/>
<path d="M985 401 c-6 -5 -28 -11 -50 -14 -40 -4 -40 -4 8 -5 26 -1 47 -6 47
-12 0 -13 33 -13 46 -1 5 5 27 11 49 14 l40 4 -42 1 c-24 1 -43 7 -43 12 0 13
-43 13 -55 1z"/>
<path d="M1208 403 c6 -2 18 -2 25 0 6 3 1 5 -13 5 -14 0 -19 -2 -12 -5z"/>
<path d="M4528 403 c6 -2 18 -2 25 0 6 3 1 5 -13 5 -14 0 -19 -2 -12 -5z"/>
<path d="M4720 400 c0 -5 -19 -11 -42 -12 l-43 -1 40 -4 c22 -3 44 -9 50 -14
12 -12 45 -12 45 1 0 6 21 11 48 12 47 1 47 1 7 5 -22 3 -44 9 -49 14 -13 12
-56 12 -56 -1z"/>
<path d="M858 393 c6 -2 18 -2 25 0 6 3 1 5 -13 5 -14 0 -19 -2 -12 -5z"/>
<path d="M1138 393 c7 -3 16 -2 19 1 4 3 -2 6 -13 5 -11 0 -14 -3 -6 -6z"/>
<path d="M4593 393 c9 -2 23 -2 30 0 6 3 -1 5 -18 5 -16 0 -22 -2 -12 -5z"/>
<path d="M460 380 c0 -5 7 -10 15 -10 8 0 15 5 15 10 0 6 -7 10 -15 10 -8 0
-15 -4 -15 -10z"/>
<path d="M1420 380 c0 -5 7 -10 15 -10 8 0 15 5 15 10 0 6 -7 10 -15 10 -8 0
-15 -4 -15 -10z"/>
<path d="M4310 380 c0 -5 7 -10 15 -10 8 0 15 5 15 10 0 6 -7 10 -15 10 -8 0
-15 -4 -15 -10z"/>
<path d="M5270 380 c0 -5 7 -10 15 -10 8 0 15 5 15 10 0 6 -7 10 -15 10 -8 0
-15 -4 -15 -10z"/>
</g>
</svg>
